<svg width="442.87999267578124px" height="104.039990234375px" xmlns="http://www.w3.org/2000/svg" viewBox="28.56000366210938 22.9800048828125 442.87999267578124 104.039990234375" style="background: rgba(0, 0, 0, 0) none repeat scroll 0% 0%;" preserveAspectRatio="xMidYMid"><defs><linearGradient id="editing-shiny-gradient" x1="0.04322727117869957" x2="0.9567727288213004" y1="0.2966316784620999" y2="0.7033683215379001" gradientUnits="objectBoundingBox"><stop offset="0.0" stop-color="#ffb200"></stop><stop offset="0.5" stop-color="#e10057"></stop><stop offset="1.0" stop-color="#5a1a80"></stop></linearGradient><linearGradient id="editing-shiny-gradient2" x1="0" x2="0" y1="0" y2="1"><stop offset="0.2" stop-color="#fff" stop-opacity="0.8"></stop><stop offset="0.8" stop-color="#fff" stop-opacity="0"></stop></linearGradient><filter id="editing-shiny2" x="-100%" y="-100%" width="300%" height="300%"><feMorphology operator="erode" radius="2"></feMorphology></filter><filter id="editing-shiny" x="-100%" y="-100%" width="300%" height="300%"><feFlood flood-color="#fff" result="flood"></feFlood><feConvolveMatrix in="SourceGraphic" result="conv" order="8,8" divisor="1" kernelMatrix="0 0 0 0 0 0 0 0 0 0 0 1 1 0 0 0 0 0 0 1 1 0 0 0 0 0 1 0 0 1 0 0 0 0 1 0 0 1 0 0 0 1 0 0 0 0 1 0 0 1 1 0 0 1 1 0 0 0 0 1 1 0 0 0 "></feConvolveMatrix><feOffset dx="0" dy="4" in="conv" result="offset"></feOffset><feComposite operator="in" in="flood" in2="offset" result="comp"></feComposite><feGaussianBlur in="offset" stdDeviation="3" result="shadow"></feGaussianBlur><feColorMatrix in="shadow" type="matrix" values="0.7 0 0 0 0  0 0.7 0 0 0  0 0 0.7 0 0  0 0 0 0.3 0" result="dark-shadow"></feColorMatrix><feOffset dx="0" dy="4" in="dark-shadow" result="offset-shadow"></feOffset><feOffset dx="0" dy="2" in="conv" result="offset-2"></feOffset><feComposite operator="out" in="offset" in2="offset-2" result="edge-diff"></feComposite><feGaussianBlur in="edge-diff" stdDeviation="1" result="edge-blur"></feGaussianBlur><feColorMatrix in="edge-blur" result="edge-shadow" type="matrix" values="0 0 0 0 0  0 0 0 0 0  0 0 0 0 0  0 0 0 0.5 0"></feColorMatrix><feComposite operator="in" in="edge-shadow" in2="offset" result="edge-shadow-in"></feComposite><feOffset dx="0" dy="1" in="edge-shadow-in" result="edge-shadow-final"></feOffset><feMerge result="out"><feMergeNode in="offset-shadow"></feMergeNode><feMergeNode in="comp"></feMergeNode><feMergeNode in="edge-shadow-final"></feMergeNode><feMergeNode in="SourceGraphic"></feMergeNode></feMerge></filter></defs><g filter="url(#editing-shiny)"><g transform="translate(91.58984375, 93.61328125)"><path d="M28.80-35.83L28.80-31.75L17.20-31.75L17.20 0L12.38 0L12.38-31.75L0.75-31.75L0.75-35.83L28.80-35.83ZM36.98-24.10L37.28-20.25L37.28-20.25Q38.48-22.85 40.23-24.31L40.23-24.31L40.23-24.31Q41.98-25.78 44.50-25.78L44.50-25.78L44.50-25.78Q45.30-25.78 46.04-25.60L46.04-25.60L46.04-25.60Q46.78-25.43 47.35-25.05L47.35-25.05L47.03-21.73L47.03-21.73Q46.88-21.10 46.28-21.10L46.28-21.10L46.28-21.10Q45.93-21.10 45.25-21.25L45.25-21.25L45.25-21.25Q44.58-21.40 43.73-21.40L43.73-21.40L43.73-21.40Q42.53-21.40 41.59-21.05L41.59-21.05L41.59-21.05Q40.65-20.70 39.91-20.01L39.91-20.01L39.91-20.01Q39.18-19.33 38.59-18.31L38.59-18.31L38.59-18.31Q38-17.30 37.53-16L37.53-16L37.53 0L33.05 0L33.05-25.33L35.60-25.33L35.60-25.33Q36.33-25.33 36.60-25.05L36.60-25.05L36.60-25.05Q36.88-24.78 36.98-24.10L36.98-24.10ZM64.97-6.15L64.97-11.40L64.97-11.40Q61.90-11.30 59.74-10.91L59.74-10.91L59.74-10.91Q57.58-10.53 56.21-9.90L56.21-9.90L56.21-9.90Q54.85-9.28 54.24-8.43L54.24-8.43L54.24-8.43Q53.63-7.58 53.63-6.53L53.63-6.53L53.63-6.53Q53.63-5.53 53.95-4.80L53.95-4.80L53.95-4.80Q54.28-4.08 54.84-3.61L54.84-3.61L54.84-3.61Q55.40-3.15 56.16-2.94L56.16-2.94L56.16-2.94Q56.93-2.73 57.80-2.73L57.80-2.73L57.80-2.73Q58.98-2.73 59.95-2.96L59.95-2.96L59.95-2.96Q60.93-3.20 61.79-3.65L61.79-3.65L61.79-3.65Q62.65-4.10 63.44-4.73L63.44-4.73L63.44-4.73Q64.22-5.35 64.97-6.15L64.97-6.15ZM51.40-20.33L50.60-21.75L50.60-21.75Q52.70-23.78 55.13-24.78L55.13-24.78L55.13-24.78Q57.55-25.78 60.50-25.78L60.50-25.78L60.50-25.78Q62.63-25.78 64.28-25.08L64.28-25.08L64.28-25.08Q65.92-24.38 67.05-23.13L67.05-23.13L67.05-23.13Q68.18-21.88 68.75-20.10L68.75-20.10L68.75-20.10Q69.33-18.32 69.33-16.20L69.33-16.20L69.33 0L67.35 0L67.35 0Q66.70 0 66.35-0.21L66.35-0.21L66.35-0.21Q66-0.43 65.80-1.05L65.80-1.05L65.30-3.45L65.30-3.45Q64.30-2.53 63.35-1.81L63.35-1.81L63.35-1.81Q62.40-1.10 61.35-0.61L61.35-0.61L61.35-0.61Q60.30-0.13 59.11 0.14L59.11 0.14L59.11 0.14Q57.93 0.40 56.48 0.40L56.48 0.40L56.48 0.40Q55 0.40 53.70-0.01L53.70-0.01L53.70-0.01Q52.40-0.43 51.44-1.25L51.44-1.25L51.44-1.25Q50.48-2.08 49.91-3.34L49.91-3.34L49.91-3.34Q49.35-4.60 49.35-6.33L49.35-6.33L49.35-6.33Q49.35-7.83 50.18-9.21L50.18-9.21L50.18-9.21Q51-10.60 52.85-11.68L52.85-11.68L52.85-11.68Q54.70-12.75 57.68-13.44L57.68-13.44L57.68-13.44Q60.65-14.13 64.97-14.23L64.97-14.23L64.97-16.20L64.97-16.20Q64.97-19.15 63.70-20.66L63.70-20.66L63.70-20.66Q62.43-22.18 59.98-22.18L59.98-22.18L59.98-22.18Q58.33-22.18 57.21-21.76L57.21-21.76L57.21-21.76Q56.10-21.35 55.29-20.84L55.29-20.84L55.29-20.84Q54.48-20.33 53.89-19.91L53.89-19.91L53.89-19.91Q53.30-19.50 52.73-19.50L52.73-19.50L52.73-19.50Q52.27-19.50 51.95-19.74L51.95-19.74L51.95-19.74Q51.63-19.98 51.40-20.33L51.40-20.33ZM94.33-25.33L97.80-25.33L87.48 0L83.48 0L73.15-25.33L76.78-25.33L76.78-25.33Q77.33-25.33 77.67-25.05L77.67-25.05L77.67-25.05Q78.03-24.78 78.15-24.40L78.15-24.40L84.58-8.10L84.58-8.10Q84.88-7.18 85.10-6.30L85.10-6.30L85.10-6.30Q85.33-5.43 85.53-4.55L85.53-4.55L85.53-4.55Q85.73-5.43 85.95-6.30L85.95-6.30L85.95-6.30Q86.18-7.18 86.50-8.10L86.50-8.10L93-24.40L93-24.40Q93.15-24.80 93.50-25.06L93.50-25.06L93.50-25.06Q93.85-25.33 94.33-25.33L94.33-25.33ZM105-15.43L118.85-15.43L118.85-15.43Q118.85-16.98 118.41-18.26L118.41-18.26L118.41-18.26Q117.97-19.55 117.14-20.49L117.14-20.49L117.14-20.49Q116.30-21.43 115.10-21.94L115.10-21.94L115.10-21.94Q113.90-22.45 112.38-22.45L112.38-22.45L112.38-22.45Q109.17-22.45 107.31-20.59L107.31-20.59L107.31-20.59Q105.45-18.73 105-15.43L105-15.43ZM121.20-5.18L122.45-3.55L122.45-3.55Q121.63-2.55 120.47-1.81L120.47-1.81L120.47-1.81Q119.33-1.07 118.01-0.60L118.01-0.60L118.01-0.60Q116.70-0.13 115.30 0.11L115.30 0.11L115.30 0.11Q113.90 0.35 112.53 0.35L112.53 0.35L112.53 0.35Q109.90 0.35 107.69-0.54L107.69-0.54L107.69-0.54Q105.47-1.43 103.86-3.14L103.86-3.14L103.86-3.14Q102.25-4.85 101.35-7.38L101.35-7.38L101.35-7.38Q100.45-9.90 100.45-13.18L100.45-13.18L100.45-13.18Q100.45-15.83 101.26-18.13L101.26-18.13L101.26-18.13Q102.08-20.43 103.60-22.11L103.60-22.11L103.60-22.11Q105.13-23.80 107.33-24.76L107.33-24.76L107.33-24.76Q109.53-25.73 112.28-25.73L112.28-25.73L112.28-25.73Q114.55-25.73 116.49-24.96L116.49-24.96L116.49-24.96Q118.42-24.20 119.84-22.76L119.84-22.76L119.84-22.76Q121.25-21.33 122.05-19.21L122.05-19.21L122.05-19.21Q122.85-17.10 122.85-14.40L122.85-14.40L122.85-14.40Q122.85-13.35 122.63-13L122.63-13L122.63-13Q122.40-12.65 121.78-12.65L121.78-12.65L104.85-12.65L104.85-12.65Q104.92-10.25 105.51-8.47L105.51-8.47L105.51-8.47Q106.10-6.70 107.15-5.51L107.15-5.51L107.15-5.51Q108.20-4.33 109.65-3.74L109.65-3.74L109.65-3.74Q111.10-3.15 112.90-3.15L112.90-3.15L112.90-3.15Q114.58-3.15 115.79-3.54L115.79-3.54L115.79-3.54Q117-3.93 117.88-4.38L117.88-4.38L117.88-4.38Q118.75-4.83 119.34-5.21L119.34-5.21L119.34-5.21Q119.92-5.60 120.35-5.60L120.35-5.60L120.35-5.60Q120.90-5.60 121.20-5.18L121.20-5.18ZM128.45-36.83L132.90-36.83L132.90 0L128.45 0L128.45-36.83ZM158.78-17.25L164.53-17.25L164.53-17.25Q166.60-17.25 168.19-17.80L168.19-17.80L168.19-17.80Q169.78-18.35 170.86-19.34L170.86-19.34L170.86-19.34Q171.95-20.33 172.50-21.70L172.50-21.70L172.50-21.70Q173.05-23.08 173.05-24.73L173.05-24.73L173.05-24.73Q173.05-28.15 170.94-30.08L170.94-30.08L170.94-30.08Q168.83-32 164.53-32L164.53-32L158.78-32L158.78-17.25ZM153.95-35.83L164.53-35.83L164.53-35.83Q167.93-35.83 170.44-35.04L170.44-35.04L170.44-35.04Q172.95-34.25 174.60-32.80L174.60-32.80L174.60-32.80Q176.25-31.35 177.06-29.30L177.06-29.30L177.06-29.30Q177.88-27.25 177.88-24.73L177.88-24.73L177.88-24.73Q177.88-22.23 177.00-20.15L177.00-20.15L177.00-20.15Q176.13-18.07 174.44-16.57L174.44-16.57L174.44-16.57Q172.75-15.08 170.26-14.24L170.26-14.24L170.26-14.24Q167.78-13.40 164.53-13.40L164.53-13.40L158.78-13.40L158.78 0L153.95 0L153.95-35.83ZM183.08-36.83L187.53-36.83L187.53 0L183.08 0L183.08-36.83ZM208.45-6.15L208.45-11.40L208.45-11.40Q205.38-11.30 203.21-10.91L203.21-10.91L203.21-10.91Q201.05-10.53 199.69-9.90L199.69-9.90L199.69-9.90Q198.33-9.28 197.71-8.43L197.71-8.43L197.71-8.43Q197.10-7.58 197.10-6.53L197.10-6.53L197.10-6.53Q197.10-5.53 197.43-4.80L197.43-4.80L197.43-4.80Q197.75-4.08 198.31-3.61L198.31-3.61L198.31-3.61Q198.88-3.15 199.64-2.94L199.64-2.94L199.64-2.94Q200.40-2.73 201.28-2.73L201.28-2.73L201.28-2.73Q202.45-2.73 203.43-2.96L203.43-2.96L203.43-2.96Q204.40-3.20 205.26-3.65L205.26-3.65L205.26-3.65Q206.13-4.10 206.91-4.73L206.91-4.73L206.91-4.73Q207.70-5.35 208.45-6.15L208.45-6.15ZM194.88-20.33L194.08-21.75L194.08-21.75Q196.18-23.78 198.60-24.78L198.60-24.78L198.60-24.78Q201.03-25.78 203.98-25.78L203.98-25.78L203.98-25.78Q206.10-25.78 207.75-25.08L207.75-25.08L207.75-25.08Q209.40-24.38 210.53-23.13L210.53-23.13L210.53-23.13Q211.65-21.88 212.23-20.10L212.23-20.10L212.23-20.10Q212.80-18.32 212.80-16.20L212.80-16.20L212.80 0L210.83 0L210.83 0Q210.18 0 209.83-0.21L209.83-0.21L209.83-0.21Q209.48-0.43 209.28-1.05L209.28-1.05L208.78-3.45L208.78-3.45Q207.78-2.53 206.83-1.81L206.83-1.81L206.83-1.81Q205.88-1.10 204.83-0.61L204.83-0.61L204.83-0.61Q203.78-0.13 202.59 0.14L202.59 0.14L202.59 0.14Q201.40 0.40 199.95 0.40L199.95 0.40L199.95 0.40Q198.48 0.40 197.18-0.01L197.18-0.01L197.18-0.01Q195.88-0.43 194.91-1.25L194.91-1.25L194.91-1.25Q193.95-2.08 193.39-3.34L193.39-3.34L193.39-3.34Q192.83-4.60 192.83-6.33L192.83-6.33L192.83-6.33Q192.83-7.83 193.65-9.21L193.65-9.21L193.65-9.21Q194.48-10.60 196.33-11.68L196.33-11.68L196.33-11.68Q198.18-12.75 201.15-13.44L201.15-13.44L201.15-13.44Q204.13-14.13 208.45-14.23L208.45-14.23L208.45-16.20L208.45-16.20Q208.45-19.15 207.18-20.66L207.18-20.66L207.18-20.66Q205.90-22.18 203.45-22.18L203.45-22.18L203.45-22.18Q201.80-22.18 200.69-21.76L200.69-21.76L200.69-21.76Q199.58-21.35 198.76-20.84L198.76-20.84L198.76-20.84Q197.95-20.33 197.36-19.91L197.36-19.91L197.36-19.91Q196.78-19.50 196.20-19.50L196.20-19.50L196.20-19.50Q195.75-19.50 195.43-19.74L195.43-19.74L195.43-19.74Q195.10-19.98 194.88-20.33L194.88-20.33ZM223.43-24.40L223.78-21.65L223.78-21.65Q224.60-22.58 225.53-23.33L225.53-23.33L225.53-23.33Q226.45-24.08 227.49-24.61L227.49-24.61L227.49-24.61Q228.53-25.15 229.69-25.44L229.69-25.44L229.69-25.44Q230.85-25.73 232.20-25.73L232.20-25.73L232.20-25.73Q234.28-25.73 235.86-25.04L235.86-25.04L235.86-25.04Q237.45-24.35 238.51-23.09L238.51-23.09L238.51-23.09Q239.58-21.83 240.13-20.05L240.13-20.05L240.13-20.05Q240.68-18.28 240.68-16.13L240.68-16.13L240.68 0L236.20 0L236.20-16.13L236.20-16.13Q236.20-19 234.89-20.59L234.89-20.59L234.89-20.59Q233.58-22.18 230.90-22.18L230.90-22.18L230.90-22.18Q228.93-22.18 227.21-21.23L227.21-21.23L227.21-21.23Q225.50-20.28 224.05-18.65L224.05-18.65L224.05 0L219.58 0L219.58-25.33L222.25-25.33L222.25-25.33Q223.20-25.33 223.43-24.40L223.43-24.40ZM251.33-24.40L251.68-21.65L251.68-21.65Q252.50-22.58 253.43-23.33L253.43-23.33L253.43-23.33Q254.35-24.08 255.39-24.61L255.39-24.61L255.39-24.61Q256.43-25.15 257.59-25.44L257.59-25.44L257.59-25.44Q258.75-25.73 260.10-25.73L260.10-25.73L260.10-25.73Q262.18-25.73 263.76-25.04L263.76-25.04L263.76-25.04Q265.35-24.35 266.41-23.09L266.41-23.09L266.41-23.09Q267.48-21.83 268.03-20.05L268.03-20.05L268.03-20.05Q268.58-18.28 268.58-16.13L268.58-16.13L268.58 0L264.10 0L264.10-16.13L264.10-16.13Q264.10-19 262.79-20.59L262.79-20.59L262.79-20.59Q261.48-22.18 258.80-22.18L258.80-22.18L258.80-22.18Q256.83-22.18 255.11-21.23L255.11-21.23L255.11-21.23Q253.40-20.28 251.95-18.65L251.95-18.65L251.95 0L247.48 0L247.48-25.33L250.15-25.33L250.15-25.33Q251.10-25.33 251.33-24.40L251.33-24.40ZM278.48-15.43L292.33-15.43L292.33-15.43Q292.33-16.98 291.89-18.26L291.89-18.26L291.89-18.26Q291.45-19.55 290.61-20.49L290.61-20.49L290.61-20.49Q289.78-21.43 288.58-21.94L288.58-21.94L288.58-21.94Q287.38-22.45 285.85-22.45L285.85-22.45L285.85-22.45Q282.65-22.45 280.79-20.59L280.79-20.59L280.79-20.59Q278.93-18.73 278.48-15.43L278.48-15.43ZM294.68-5.18L295.93-3.55L295.93-3.55Q295.10-2.55 293.95-1.81L293.95-1.81L293.95-1.81Q292.80-1.07 291.49-0.60L291.49-0.60L291.49-0.60Q290.18-0.13 288.78 0.11L288.78 0.11L288.78 0.11Q287.38 0.35 286 0.35L286 0.35L286 0.35Q283.38 0.35 281.16-0.54L281.16-0.54L281.16-0.54Q278.95-1.43 277.34-3.14L277.34-3.14L277.34-3.14Q275.73-4.85 274.83-7.38L274.83-7.38L274.83-7.38Q273.93-9.90 273.93-13.18L273.93-13.18L273.93-13.18Q273.93-15.83 274.74-18.13L274.74-18.13L274.74-18.13Q275.55-20.43 277.08-22.11L277.08-22.11L277.08-22.11Q278.60-23.80 280.80-24.76L280.80-24.76L280.80-24.76Q283-25.73 285.75-25.73L285.75-25.73L285.75-25.73Q288.03-25.73 289.96-24.96L289.96-24.96L289.96-24.96Q291.90-24.20 293.31-22.76L293.31-22.76L293.31-22.76Q294.73-21.33 295.53-19.21L295.53-19.21L295.53-19.21Q296.33-17.10 296.33-14.40L296.33-14.40L296.33-14.40Q296.33-13.35 296.10-13L296.10-13L296.10-13Q295.88-12.65 295.25-12.65L295.25-12.65L278.33-12.65L278.33-12.65Q278.40-10.25 278.99-8.47L278.99-8.47L278.99-8.47Q279.58-6.70 280.63-5.51L280.63-5.51L280.63-5.51Q281.68-4.33 283.13-3.74L283.13-3.74L283.13-3.74Q284.58-3.15 286.38-3.15L286.38-3.15L286.38-3.15Q288.05-3.15 289.26-3.54L289.26-3.54L289.26-3.54Q290.48-3.93 291.35-4.38L291.35-4.38L291.35-4.38Q292.23-4.83 292.81-5.21L292.81-5.21L292.81-5.21Q293.40-5.60 293.83-5.60L293.83-5.60L293.83-5.60Q294.38-5.60 294.68-5.18L294.68-5.18ZM305.70-24.10L306-20.25L306-20.25Q307.20-22.85 308.95-24.31L308.95-24.31L308.95-24.31Q310.70-25.78 313.23-25.78L313.23-25.78L313.23-25.78Q314.02-25.78 314.76-25.60L314.76-25.60L314.76-25.60Q315.50-25.43 316.07-25.05L316.07-25.05L315.75-21.73L315.75-21.73Q315.60-21.10 315-21.10L315-21.10L315-21.10Q314.65-21.10 313.98-21.25L313.98-21.25L313.98-21.25Q313.30-21.40 312.45-21.40L312.45-21.40L312.45-21.40Q311.25-21.40 310.31-21.05L310.31-21.05L310.31-21.05Q309.38-20.70 308.64-20.01L308.64-20.01L308.64-20.01Q307.90-19.33 307.31-18.31L307.31-18.31L307.31-18.31Q306.73-17.30 306.25-16L306.25-16L306.25 0L301.77 0L301.77-25.33L304.32-25.33L304.32-25.33Q305.05-25.33 305.32-25.05L305.32-25.05L305.32-25.05Q305.60-24.78 305.70-24.10L305.70-24.10Z" fill="url(#editing-shiny-gradient)"></path></g></g><g filter="url(#editing-shiny2)"><g transform="translate(91.58985137939453, 93.61328315734863)"><path d="M28.80-35.83L28.80-31.75L17.20-31.75L17.20 0L12.38 0L12.38-31.75L0.75-31.75L0.75-35.83L28.80-35.83ZM36.98-24.10L37.28-20.25L37.28-20.25Q38.48-22.85 40.23-24.31L40.23-24.31L40.23-24.31Q41.98-25.78 44.50-25.78L44.50-25.78L44.50-25.78Q45.30-25.78 46.04-25.60L46.04-25.60L46.04-25.60Q46.78-25.43 47.35-25.05L47.35-25.05L47.03-21.73L47.03-21.73Q46.88-21.10 46.28-21.10L46.28-21.10L46.28-21.10Q45.93-21.10 45.25-21.25L45.25-21.25L45.25-21.25Q44.58-21.40 43.73-21.40L43.73-21.40L43.73-21.40Q42.53-21.40 41.59-21.05L41.59-21.05L41.59-21.05Q40.65-20.70 39.91-20.01L39.91-20.01L39.91-20.01Q39.18-19.33 38.59-18.31L38.59-18.31L38.59-18.31Q38-17.30 37.53-16L37.53-16L37.53 0L33.05 0L33.05-25.33L35.60-25.33L35.60-25.33Q36.33-25.33 36.60-25.05L36.60-25.05L36.60-25.05Q36.88-24.78 36.98-24.10L36.98-24.10ZM64.97-6.15L64.97-11.40L64.97-11.40Q61.90-11.30 59.74-10.91L59.74-10.91L59.74-10.91Q57.58-10.53 56.21-9.90L56.21-9.90L56.21-9.90Q54.85-9.28 54.24-8.43L54.24-8.43L54.24-8.43Q53.63-7.58 53.63-6.53L53.63-6.53L53.63-6.53Q53.63-5.53 53.95-4.80L53.95-4.80L53.95-4.80Q54.28-4.08 54.84-3.61L54.84-3.61L54.84-3.61Q55.40-3.15 56.16-2.94L56.16-2.94L56.16-2.94Q56.93-2.73 57.80-2.73L57.80-2.73L57.80-2.73Q58.98-2.73 59.95-2.96L59.95-2.96L59.95-2.96Q60.93-3.20 61.79-3.65L61.79-3.65L61.79-3.65Q62.65-4.10 63.44-4.73L63.44-4.73L63.44-4.73Q64.22-5.35 64.97-6.15L64.97-6.15ZM51.40-20.33L50.60-21.75L50.60-21.75Q52.70-23.78 55.13-24.78L55.13-24.78L55.13-24.78Q57.55-25.78 60.50-25.78L60.50-25.78L60.50-25.78Q62.63-25.78 64.28-25.08L64.28-25.08L64.28-25.08Q65.92-24.38 67.05-23.13L67.05-23.13L67.05-23.13Q68.18-21.88 68.75-20.10L68.75-20.10L68.75-20.10Q69.33-18.32 69.33-16.20L69.33-16.20L69.33 0L67.35 0L67.35 0Q66.70 0 66.35-0.21L66.35-0.21L66.35-0.21Q66-0.43 65.80-1.05L65.80-1.05L65.30-3.45L65.30-3.45Q64.30-2.53 63.35-1.81L63.35-1.81L63.35-1.81Q62.40-1.10 61.35-0.61L61.35-0.61L61.35-0.61Q60.30-0.13 59.11 0.14L59.11 0.14L59.11 0.14Q57.93 0.40 56.48 0.40L56.48 0.40L56.48 0.40Q55 0.40 53.70-0.01L53.70-0.01L53.70-0.01Q52.40-0.43 51.44-1.25L51.44-1.25L51.44-1.25Q50.48-2.08 49.91-3.34L49.91-3.34L49.91-3.34Q49.35-4.60 49.35-6.33L49.35-6.33L49.35-6.33Q49.35-7.83 50.18-9.21L50.18-9.21L50.18-9.21Q51-10.60 52.85-11.68L52.85-11.68L52.85-11.68Q54.70-12.75 57.68-13.44L57.68-13.44L57.68-13.44Q60.65-14.13 64.97-14.23L64.97-14.23L64.97-16.20L64.97-16.20Q64.97-19.15 63.70-20.66L63.70-20.66L63.70-20.66Q62.43-22.18 59.98-22.18L59.98-22.18L59.98-22.18Q58.33-22.18 57.21-21.76L57.21-21.76L57.21-21.76Q56.10-21.35 55.29-20.84L55.29-20.84L55.29-20.84Q54.48-20.33 53.89-19.91L53.89-19.91L53.89-19.91Q53.30-19.50 52.73-19.50L52.73-19.50L52.73-19.50Q52.27-19.50 51.95-19.74L51.95-19.74L51.95-19.74Q51.63-19.98 51.40-20.33L51.40-20.33ZM94.33-25.33L97.80-25.33L87.48 0L83.48 0L73.15-25.33L76.78-25.33L76.78-25.33Q77.33-25.33 77.67-25.05L77.67-25.05L77.67-25.05Q78.03-24.78 78.15-24.40L78.15-24.40L84.58-8.10L84.58-8.10Q84.88-7.18 85.10-6.30L85.10-6.30L85.10-6.30Q85.33-5.43 85.53-4.55L85.53-4.55L85.53-4.55Q85.73-5.43 85.95-6.30L85.95-6.30L85.95-6.30Q86.18-7.18 86.50-8.10L86.50-8.10L93-24.40L93-24.40Q93.15-24.80 93.50-25.06L93.50-25.06L93.50-25.06Q93.85-25.33 94.33-25.33L94.33-25.33ZM105-15.43L118.85-15.43L118.85-15.43Q118.85-16.98 118.41-18.26L118.41-18.26L118.41-18.26Q117.97-19.55 117.14-20.49L117.14-20.49L117.14-20.49Q116.30-21.43 115.10-21.94L115.10-21.94L115.10-21.94Q113.90-22.45 112.38-22.45L112.38-22.45L112.38-22.45Q109.17-22.45 107.31-20.59L107.31-20.59L107.31-20.59Q105.45-18.73 105-15.43L105-15.43ZM121.20-5.18L122.45-3.55L122.45-3.55Q121.63-2.55 120.47-1.81L120.47-1.81L120.47-1.81Q119.33-1.07 118.01-0.60L118.01-0.60L118.01-0.60Q116.70-0.13 115.30 0.11L115.30 0.11L115.30 0.11Q113.90 0.35 112.53 0.35L112.53 0.35L112.53 0.35Q109.90 0.35 107.69-0.54L107.69-0.54L107.69-0.54Q105.47-1.43 103.86-3.14L103.86-3.14L103.86-3.14Q102.25-4.85 101.35-7.38L101.35-7.38L101.35-7.38Q100.45-9.90 100.45-13.18L100.45-13.18L100.45-13.18Q100.45-15.83 101.26-18.13L101.26-18.13L101.26-18.13Q102.08-20.43 103.60-22.11L103.60-22.11L103.60-22.11Q105.13-23.80 107.33-24.76L107.33-24.76L107.33-24.76Q109.53-25.73 112.28-25.73L112.28-25.73L112.28-25.73Q114.55-25.73 116.49-24.96L116.49-24.96L116.49-24.96Q118.42-24.20 119.84-22.76L119.84-22.76L119.84-22.76Q121.25-21.33 122.05-19.21L122.05-19.21L122.05-19.21Q122.85-17.10 122.85-14.40L122.85-14.40L122.85-14.40Q122.85-13.35 122.63-13L122.63-13L122.63-13Q122.40-12.65 121.78-12.65L121.78-12.65L104.85-12.65L104.85-12.65Q104.92-10.25 105.51-8.47L105.51-8.47L105.51-8.47Q106.10-6.70 107.15-5.51L107.15-5.51L107.15-5.51Q108.20-4.33 109.65-3.74L109.65-3.74L109.65-3.74Q111.10-3.15 112.90-3.15L112.90-3.15L112.90-3.15Q114.58-3.15 115.79-3.54L115.79-3.54L115.79-3.54Q117-3.93 117.88-4.38L117.88-4.38L117.88-4.38Q118.75-4.83 119.34-5.21L119.34-5.21L119.34-5.21Q119.92-5.60 120.35-5.60L120.35-5.60L120.35-5.60Q120.90-5.60 121.20-5.18L121.20-5.18ZM128.45-36.83L132.90-36.83L132.90 0L128.45 0L128.45-36.83ZM158.78-17.25L164.53-17.25L164.53-17.25Q166.60-17.25 168.19-17.80L168.19-17.80L168.19-17.80Q169.78-18.35 170.86-19.34L170.86-19.34L170.86-19.34Q171.95-20.33 172.50-21.70L172.50-21.70L172.50-21.70Q173.05-23.08 173.05-24.73L173.05-24.73L173.05-24.73Q173.05-28.15 170.94-30.08L170.94-30.08L170.94-30.08Q168.83-32 164.53-32L164.53-32L158.78-32L158.78-17.25ZM153.95-35.83L164.53-35.83L164.53-35.83Q167.93-35.83 170.44-35.04L170.44-35.04L170.44-35.04Q172.95-34.25 174.60-32.80L174.60-32.80L174.60-32.80Q176.25-31.35 177.06-29.30L177.06-29.30L177.06-29.30Q177.88-27.25 177.88-24.73L177.88-24.73L177.88-24.73Q177.88-22.23 177.00-20.15L177.00-20.15L177.00-20.15Q176.13-18.07 174.44-16.57L174.44-16.57L174.44-16.57Q172.75-15.08 170.26-14.24L170.26-14.24L170.26-14.24Q167.78-13.40 164.53-13.40L164.53-13.40L158.78-13.40L158.78 0L153.95 0L153.95-35.83ZM183.08-36.83L187.53-36.83L187.53 0L183.08 0L183.08-36.83ZM208.45-6.15L208.45-11.40L208.45-11.40Q205.38-11.30 203.21-10.91L203.21-10.91L203.21-10.91Q201.05-10.53 199.69-9.90L199.69-9.90L199.69-9.90Q198.33-9.28 197.71-8.43L197.71-8.43L197.71-8.43Q197.10-7.58 197.10-6.53L197.10-6.53L197.10-6.53Q197.10-5.53 197.43-4.80L197.43-4.80L197.43-4.80Q197.75-4.08 198.31-3.61L198.31-3.61L198.31-3.61Q198.88-3.15 199.64-2.94L199.64-2.94L199.64-2.94Q200.40-2.73 201.28-2.73L201.28-2.73L201.28-2.73Q202.45-2.73 203.43-2.96L203.43-2.96L203.43-2.96Q204.40-3.20 205.26-3.65L205.26-3.65L205.26-3.65Q206.13-4.10 206.91-4.73L206.91-4.73L206.91-4.73Q207.70-5.35 208.45-6.15L208.45-6.15ZM194.88-20.33L194.08-21.75L194.08-21.75Q196.18-23.78 198.60-24.78L198.60-24.78L198.60-24.78Q201.03-25.78 203.98-25.78L203.98-25.78L203.98-25.78Q206.10-25.78 207.75-25.08L207.75-25.08L207.75-25.08Q209.40-24.38 210.53-23.13L210.53-23.13L210.53-23.13Q211.65-21.88 212.23-20.10L212.23-20.10L212.23-20.10Q212.80-18.32 212.80-16.20L212.80-16.20L212.80 0L210.83 0L210.83 0Q210.18 0 209.83-0.21L209.83-0.21L209.83-0.21Q209.48-0.43 209.28-1.05L209.28-1.05L208.78-3.45L208.78-3.45Q207.78-2.53 206.83-1.81L206.83-1.81L206.83-1.81Q205.88-1.10 204.83-0.61L204.83-0.61L204.83-0.61Q203.78-0.13 202.59 0.14L202.59 0.14L202.59 0.14Q201.40 0.40 199.95 0.40L199.95 0.40L199.95 0.40Q198.48 0.40 197.18-0.01L197.18-0.01L197.18-0.01Q195.88-0.43 194.91-1.25L194.91-1.25L194.91-1.25Q193.95-2.08 193.39-3.34L193.39-3.34L193.39-3.34Q192.83-4.60 192.83-6.33L192.83-6.33L192.83-6.33Q192.83-7.83 193.65-9.21L193.65-9.21L193.65-9.21Q194.48-10.60 196.33-11.68L196.33-11.68L196.33-11.68Q198.18-12.75 201.15-13.44L201.15-13.44L201.15-13.44Q204.13-14.13 208.45-14.23L208.45-14.23L208.45-16.20L208.45-16.20Q208.45-19.15 207.18-20.66L207.18-20.66L207.18-20.66Q205.90-22.18 203.45-22.18L203.45-22.18L203.45-22.18Q201.80-22.18 200.69-21.76L200.69-21.76L200.69-21.76Q199.58-21.35 198.76-20.84L198.76-20.84L198.76-20.84Q197.95-20.33 197.36-19.91L197.36-19.91L197.36-19.91Q196.78-19.50 196.20-19.50L196.20-19.50L196.20-19.50Q195.75-19.50 195.43-19.74L195.43-19.74L195.43-19.74Q195.10-19.98 194.88-20.33L194.88-20.33ZM223.43-24.40L223.78-21.65L223.78-21.65Q224.60-22.58 225.53-23.33L225.53-23.33L225.53-23.33Q226.45-24.08 227.49-24.61L227.49-24.61L227.49-24.61Q228.53-25.15 229.69-25.44L229.69-25.44L229.69-25.44Q230.85-25.73 232.20-25.73L232.20-25.73L232.20-25.73Q234.28-25.73 235.86-25.04L235.86-25.04L235.86-25.04Q237.45-24.35 238.51-23.09L238.51-23.09L238.51-23.09Q239.58-21.83 240.13-20.05L240.13-20.05L240.13-20.05Q240.68-18.28 240.68-16.13L240.68-16.13L240.68 0L236.20 0L236.20-16.13L236.20-16.13Q236.20-19 234.89-20.59L234.89-20.59L234.89-20.59Q233.58-22.18 230.90-22.18L230.90-22.18L230.90-22.18Q228.93-22.18 227.21-21.23L227.21-21.23L227.21-21.23Q225.50-20.28 224.05-18.65L224.05-18.65L224.05 0L219.58 0L219.58-25.33L222.25-25.33L222.25-25.33Q223.20-25.33 223.43-24.40L223.43-24.40ZM251.33-24.40L251.68-21.65L251.68-21.65Q252.50-22.58 253.43-23.33L253.43-23.33L253.43-23.33Q254.35-24.08 255.39-24.61L255.39-24.61L255.39-24.61Q256.43-25.15 257.59-25.44L257.59-25.44L257.59-25.44Q258.75-25.73 260.10-25.73L260.10-25.73L260.10-25.73Q262.18-25.73 263.76-25.04L263.76-25.04L263.76-25.04Q265.35-24.35 266.41-23.09L266.41-23.09L266.41-23.09Q267.48-21.83 268.03-20.05L268.03-20.05L268.03-20.05Q268.58-18.28 268.58-16.13L268.58-16.13L268.58 0L264.10 0L264.10-16.13L264.10-16.13Q264.10-19 262.79-20.59L262.79-20.59L262.79-20.59Q261.48-22.18 258.80-22.18L258.80-22.18L258.80-22.18Q256.83-22.18 255.11-21.23L255.11-21.23L255.11-21.23Q253.40-20.28 251.95-18.65L251.95-18.65L251.95 0L247.48 0L247.48-25.33L250.15-25.33L250.15-25.33Q251.10-25.33 251.33-24.40L251.33-24.40ZM278.48-15.43L292.33-15.43L292.33-15.43Q292.33-16.98 291.89-18.26L291.89-18.26L291.89-18.26Q291.45-19.55 290.61-20.49L290.61-20.49L290.61-20.49Q289.78-21.43 288.58-21.94L288.58-21.94L288.58-21.94Q287.38-22.45 285.85-22.45L285.85-22.45L285.85-22.45Q282.65-22.45 280.79-20.59L280.79-20.59L280.79-20.59Q278.93-18.73 278.48-15.43L278.48-15.43ZM294.68-5.18L295.93-3.55L295.93-3.55Q295.10-2.55 293.95-1.81L293.95-1.81L293.95-1.81Q292.80-1.07 291.49-0.60L291.49-0.60L291.49-0.60Q290.18-0.13 288.78 0.11L288.78 0.11L288.78 0.11Q287.38 0.35 286 0.35L286 0.35L286 0.35Q283.38 0.35 281.16-0.54L281.16-0.54L281.16-0.54Q278.95-1.43 277.34-3.14L277.34-3.14L277.34-3.14Q275.73-4.85 274.83-7.38L274.83-7.38L274.83-7.38Q273.93-9.90 273.93-13.18L273.93-13.18L273.93-13.18Q273.93-15.83 274.74-18.13L274.74-18.13L274.74-18.13Q275.55-20.43 277.08-22.11L277.08-22.11L277.08-22.11Q278.60-23.80 280.80-24.76L280.80-24.76L280.80-24.76Q283-25.73 285.75-25.73L285.75-25.73L285.75-25.73Q288.03-25.73 289.96-24.96L289.96-24.96L289.96-24.96Q291.90-24.20 293.31-22.76L293.31-22.76L293.31-22.76Q294.73-21.33 295.53-19.21L295.53-19.21L295.53-19.21Q296.33-17.10 296.33-14.40L296.33-14.40L296.33-14.40Q296.33-13.35 296.10-13L296.10-13L296.10-13Q295.88-12.65 295.25-12.65L295.25-12.65L278.33-12.65L278.33-12.65Q278.40-10.25 278.99-8.47L278.99-8.47L278.99-8.47Q279.58-6.70 280.63-5.51L280.63-5.51L280.63-5.51Q281.68-4.33 283.13-3.74L283.13-3.74L283.13-3.74Q284.58-3.15 286.38-3.15L286.38-3.15L286.38-3.15Q288.05-3.15 289.26-3.54L289.26-3.54L289.26-3.54Q290.48-3.93 291.35-4.38L291.35-4.38L291.35-4.38Q292.23-4.83 292.81-5.21L292.81-5.21L292.81-5.21Q293.40-5.60 293.83-5.60L293.83-5.60L293.83-5.60Q294.38-5.60 294.68-5.18L294.68-5.18ZM305.70-24.10L306-20.25L306-20.25Q307.20-22.85 308.95-24.31L308.95-24.31L308.95-24.31Q310.70-25.78 313.23-25.78L313.23-25.78L313.23-25.78Q314.02-25.78 314.76-25.60L314.76-25.60L314.76-25.60Q315.50-25.43 316.07-25.05L316.07-25.05L315.75-21.73L315.75-21.73Q315.60-21.10 315-21.10L315-21.10L315-21.10Q314.65-21.10 313.98-21.25L313.98-21.25L313.98-21.25Q313.30-21.40 312.45-21.40L312.45-21.40L312.45-21.40Q311.25-21.40 310.31-21.05L310.31-21.05L310.31-21.05Q309.38-20.70 308.64-20.01L308.64-20.01L308.64-20.01Q307.90-19.33 307.31-18.31L307.31-18.31L307.31-18.31Q306.73-17.30 306.25-16L306.25-16L306.25 0L301.77 0L301.77-25.33L304.32-25.33L304.32-25.33Q305.05-25.33 305.32-25.05L305.32-25.05L305.32-25.05Q305.60-24.78 305.70-24.10L305.70-24.10Z" fill="url(#editing-shiny-gradient2)"></path></g></g><style>text {
  font-size: 64px;
  font-family: Arial Black;
  dominant-baseline: central;
  text-anchor: middle;
}</style></svg>